<?xml version="1.0" encoding="UTF-8"?>
<svg id="svg2" xmlns="http://www.w3.org/2000/svg" xmlns:svg="http://www.w3.org/2000/svg" xmlns:rdf="http://www.w3.org/1999/02/22-rdf-syntax-ns#" xmlns:dc="http://purl.org/dc/elements/1.1/" xmlns:cc="http://creativecommons.org/ns#" version="1.1" viewBox="0 0 635.9 621.4">
  <!-- Generator: Adobe Illustrator 29.3.1, SVG Export Plug-In . SVG Version: 2.1.0 Build 151)  -->
  <defs>
    <style>
      .st0 {
        fill: #f95;
      }

      .st1 {
        fill: #080502;
      }
    </style>
  </defs>
  <g id="layer1">
    <g id="g3052">
      <path id="path3049" class="st1" d="M319.4,39.4c-17.9,0-35.9,1.4-50.2,4.3-56.5,11.3-100.6,34.8-141.3,75.5-40.6,40.6-64.3,84.9-75.6,141.7-5.7,28.4-5.6,71.6,0,100.2,11.3,56.5,34.8,100.6,75.5,141.3,46.5,46.5,93.9,69.1,167.1,79.6,13.1,1.9,57.1-.6,75.8-4.3,55.2-10.8,99.8-34.8,140.3-75.2,40.6-40.6,64.2-84.9,75.6-141.6,5.7-28.4,5.7-71.6,0-100.3-11.3-56.5-34.8-100.6-75.5-141.3-40.6-40.6-84.9-64.2-141.7-75.6-14.2-2.8-32.1-4.3-50-4.2h0Z"/>
      <path id="path3030" class="st0" d="M430.5,260.9c-5,5.4-10.2,10.7-15,16.3,8,15.4,13.9,32,14.8,49.4,2.7,41.3-9.2,81.9-22.4,120.6-14.3,41.3-33.6,80.6-51.1,120.6,3.6,1.1,8-1.3,11.7-1.6,41.8-8.5,82-26.3,114.7-53.8,15.2-12.7,29.7-26.6,41.9-42.2-7.6-59.8-21.6-120.1-52.5-172.5-9.6-16-19.6-32.2-32.4-45.8-3.1,0-5.9,6-8.9,8.2l-.5.5-.3.3h0ZM459.4,227.9c-2.3,3.6-7.7,6.9-7,11.7,10.9,15.4,22.9,30.2,32.2,46.7,28.8,48.6,45,103.8,53.4,159.5.4,4.6,3.6,0,4.7-1.9,24.3-42.2,37.3-90.9,36.1-139.7.8-4.9-6.6-4.6-9.4-7.2-36.6-18.1-70.4-41.6-99.8-69.9-3.1-3.4-6.3-6.7-8.7-.7-.5.5-.9,1.1-1.4,1.6h0ZM519.6,152.1c-15,18.3-29.5,37.4-42.4,57.1,11.1,13.9,25.6,25.3,39.5,36.4,18,12.8,36.3,25.9,56.9,34.3,4.7.4,1.3-7,1.8-9.6-4.6-28.2-14.1-55.7-27.6-80.8-8.1-13.5-15.5-27.9-25.9-39.5l-2.4,2.1h0ZM398.5,65.7c-1.9,4,2.2,9.3,2.9,13.6,14.4,40.2,33.5,79.4,60,113,3.8,5.1,7.7-3.3,10.3-5.5,12.9-16.7,26.4-33.6,37.4-51.8-23.3-24.2-51-44.8-81.8-58.6-9.4-3.8-18.8-8.8-28.7-10.7h0ZM311.9,54.4c-25.1-.3-50.3,3.2-73.9,12.1-23.3,8.2-46.4,18.7-66.1,33.5,19.3,6.2,40,8.5,59.6,14,66.7,16,131.2,44.9,183.9,89.2,8.4,6.6,15.7,15.6,24.2,21.4,4.3-4.7,11-8.8,12.6-15.1-14.4-23.2-31.7-44.9-43.2-70-12.8-25.8-22.8-52.8-31.8-80.1-21.2-5.7-43.5-4.9-65.3-5.1h0ZM154.4,116.6c-11,2.8-17.5,13.6-25.4,21-34.1,36.1-55.5,82.8-64.1,131.5-2,10.2-3.2,20.7-3.3,31,68.8-24.8,138.3-50,211.1-60.4,26.9-2,54.3-4.1,81,.8,18,3.6,35.5,11.1,49.6,22.6,7.8-4.5,13.2-12.7,19.8-18.9,2.3-2.5,7-5.9,2.5-9-51.4-52.1-119.4-84.5-189.5-103-26.3-6.6-52.8-13.4-79.9-15.6h-1.8s0,0,0,0ZM312.1,253.6c-65.4,1.8-128.5,21.8-190.1,42.5-20.6,7.1-41.1,14.8-61.4,22.5,2.3,31.6,7.8,63.3,20.6,92.5,13.4,31.2,31.9,61.1,57.2,84,3.8,3,6.9-3.8,10.2-5,54.7-44.4,109.2-89.1,162-135.7,27.2-25,55.6-49.4,80.5-76.5,1.4-3.9-4.4-6.3-6.8-8.6-21-13.8-47.7-15.7-72.1-15.5h0ZM398.9,293.8c-44.8,44.2-91.4,86.4-139.7,126.6-35.2,30-71.6,58.7-106.2,89.3,16.5,14.6,36.4,25.3,55.8,35.7,37.2,17.6,78.7,25.9,119.8,24.7,7.7,2.8,10-3.5,12.3-9.5,27.8-57.8,55.4-116.6,68.9-179.7,5.8-29.7,7.9-61.8-5.1-90-.4-4.9-4.1,2.3-5.7,2.8h0Z"/>
    </g>
  </g>
</svg>